<svg xmlns="http://www.w3.org/2000/svg" version="1.1" xmlns:xlink="http://www.w3.org/1999/xlink" viewBox="0 0 200 200"><rect width="200" height="200" fill="url('#gradient')"></rect><defs><linearGradient id="gradient" gradientTransform="rotate(45 0.5 0.5)"><stop offset="0%" stop-color="#472027"></stop><stop offset="100%" stop-color="#192025"></stop></linearGradient></defs><g><g fill="#f3bd7d" transform="matrix(0.9770474423535648,0,0,0.9770474423535648,8.950357473955021,105.34796757251932)" stroke="#c06a3e" stroke-width="0.2"><path d="M8.87 0L6.36-5.02L4.50-5.02L4.50 0L1.07 0L1.07-14.22L6.67-14.22Q9.20-14.22 10.63-13.10Q12.05-11.97 12.05-9.92L12.05-9.92Q12.05-8.44 11.45-7.46Q10.85-6.48 9.57-5.88L9.57-5.88L12.54-0.15L12.54 0L8.87 0ZM4.50-11.57L4.50-7.67L6.67-7.67Q7.65-7.67 8.14-8.18Q8.63-8.69 8.63-9.61Q8.63-10.53 8.13-11.05Q7.64-11.57 6.67-11.57L6.67-11.57L4.50-11.57ZM13.56-4.82L13.55-5.38Q13.55-6.96 14.17-8.20Q14.79-9.43 15.94-10.10Q17.09-10.76 18.64-10.76L18.64-10.76Q21.02-10.76 22.38-9.29Q23.75-7.82 23.75-5.29L23.75-5.29L23.75-5.18Q23.75-2.71 22.38-1.25Q21.01 0.20 18.66 0.20L18.66 0.20Q16.41 0.20 15.04-1.16Q13.67-2.51 13.56-4.82L13.56-4.82ZM16.86-5.77L16.85-5.18Q16.85-3.71 17.30-3.03Q17.76-2.34 18.66-2.34L18.66-2.34Q20.42-2.34 20.46-5.05L20.46-5.05L20.46-5.38Q20.46-8.22 18.64-8.22L18.64-8.22Q16.99-8.22 16.86-5.77L16.86-5.77ZM29.67-2.34L29.67-2.34Q30.36-2.34 30.74-2.72Q31.12-3.10 31.11-3.77L31.11-3.77L34.20-3.77Q34.20-2.03 32.95-0.92Q31.71 0.20 29.75 0.20L29.75 0.20Q27.44 0.20 26.11-1.25Q24.79-2.70 24.79-5.25L24.79-5.25L24.79-5.39Q24.79-6.99 25.38-8.22Q25.97-9.44 27.08-10.10Q28.19-10.76 29.72-10.76L29.72-10.76Q31.78-10.76 32.99-9.62Q34.20-8.48 34.20-6.52L34.20-6.52L31.11-6.52Q31.11-7.34 30.71-7.78Q30.31-8.22 29.64-8.22L29.64-8.22Q28.36-8.22 28.14-6.59L28.14-6.59Q28.08-6.07 28.08-5.17L28.08-5.17Q28.08-3.57 28.46-2.96Q28.84-2.34 29.67-2.34ZM42.14 0L39.83-3.94L38.91-3.01L38.91 0L35.62 0L35.62-15.01L38.91-15.01L38.91-7.04L39.24-7.48L41.72-10.57L45.66-10.57L41.96-6.22L45.91 0L42.14 0ZM47.69 3.83L47.69 3.83L46.03 3.05L46.36 2.38Q47.04 1.11 47.07-0.04L47.07-0.04L47.07-2.48L49.71-2.48L49.70-0.36Q49.69 0.76 49.12 1.92Q48.55 3.09 47.69 3.83ZM57.69-4.82L55.50-4.82L55.50 0L52.07 0L52.07-14.22L57.74-14.22Q59.38-14.22 60.63-13.62Q61.88-13.02 62.57-11.91Q63.26-10.80 63.26-9.39L63.26-9.39Q63.26-7.31 61.77-6.07Q60.28-4.82 57.69-4.82L57.69-4.82ZM55.50-11.57L55.50-7.47L57.74-7.47Q58.74-7.47 59.26-7.97Q59.79-8.47 59.79-9.38L59.79-9.38Q59.79-10.37 59.25-10.97Q58.71-11.56 57.78-11.57L57.78-11.57L55.50-11.57ZM74.07 0L70.78 0Q70.61-0.32 70.47-0.95L70.47-0.95Q69.56 0.20 67.93 0.20L67.93 0.20Q66.44 0.20 65.39-0.71Q64.35-1.61 64.35-2.98L64.35-2.98Q64.35-4.70 65.62-5.58Q66.88-6.46 69.31-6.46L69.31-6.46L70.32-6.46L70.32-7.01Q70.32-8.47 69.06-8.47L69.06-8.47Q67.89-8.47 67.89-7.31L67.89-7.31L64.60-7.31Q64.60-8.85 65.90-9.80Q67.21-10.76 69.23-10.76Q71.25-10.76 72.42-9.78Q73.59-8.79 73.62-7.07L73.62-7.07L73.62-2.39Q73.64-0.94 74.07-0.17L74.07-0.17L74.07 0ZM68.72-2.15L68.72-2.15Q69.34-2.15 69.74-2.41Q70.15-2.68 70.32-3.01L70.32-3.01L70.32-4.70L69.37-4.70Q67.65-4.70 67.65-3.15L67.65-3.15Q67.65-2.71 67.95-2.43Q68.25-2.15 68.72-2.15ZM85.25-5.36L85.25-5.21Q85.25-2.74 84.15-1.27Q83.04 0.20 81.15 0.20L81.15 0.20Q79.70 0.20 78.76-0.87L78.76-0.87L78.76 4.06L75.47 4.06L75.47-10.57L78.54-10.57L78.64-9.59Q79.59-10.76 81.13-10.76L81.13-10.76Q83.09-10.76 84.17-9.32Q85.25-7.88 85.25-5.36L85.25-5.36ZM81.96-5.06L81.96-5.41Q81.96-8.22 80.32-8.22L80.32-8.22Q79.15-8.22 78.76-7.38L78.76-7.38L78.76-3.22Q79.19-2.34 80.34-2.34L80.34-2.34Q81.91-2.34 81.96-5.06L81.96-5.06ZM91.82 0.20L91.82 0.20Q89.38 0.20 87.88-1.25Q86.38-2.71 86.38-5.03L86.38-5.03L86.38-5.30Q86.38-6.92 86.98-8.16Q87.58-9.40 88.73-10.08Q89.88-10.76 91.46-10.76L91.46-10.76Q93.69-10.76 94.98-9.38Q96.27-8.00 96.27-5.53L96.27-5.53L96.27-4.25L89.73-4.25Q89.90-3.36 90.50-2.85Q91.09-2.34 92.04-2.34L92.04-2.34Q93.60-2.34 94.48-3.44L94.48-3.44L95.99-1.66Q95.37-0.81 94.24-0.31Q93.12 0.20 91.82 0.20ZM91.45-8.22L91.45-8.22Q90-8.22 89.73-6.31L89.73-6.31L93.05-6.31L93.05-6.56Q93.07-7.35 92.65-7.79Q92.23-8.22 91.45-8.22ZM104.04-10.64L103.98-7.59L102.90-7.67Q101.35-7.67 100.91-6.69L100.91-6.69L100.91 0L97.62 0L97.62-10.57L100.70-10.57L100.81-9.21Q101.64-10.76 103.13-10.76L103.13-10.76Q103.65-10.76 104.04-10.64L104.04-10.64ZM104.64 3.83L104.64 3.83L102.98 3.05L103.31 2.38Q103.99 1.11 104.02-0.04L104.02-0.04L104.02-2.48L106.66-2.48L106.65-0.36Q106.64 0.76 106.07 1.92Q105.51 3.09 104.64 3.83ZM116.36-3.78L116.36-3.78Q116.36-4.53 115.83-4.95Q115.29-5.37 113.96-5.82Q112.62-6.27 111.77-6.69L111.77-6.69Q109.00-8.05 109.00-10.42L109.00-10.42Q109.00-11.60 109.69-12.50Q110.38-13.41 111.64-13.91Q112.90-14.41 114.47-14.41L114.47-14.41Q116.01-14.41 117.22-13.87Q118.44-13.32 119.11-12.31Q119.79-11.30 119.79-10L119.79-10L116.37-10Q116.37-10.87 115.83-11.35Q115.30-11.83 114.39-11.83L114.39-11.83Q113.48-11.83 112.94-11.42Q112.41-11.02 112.41-10.39L112.41-10.39Q112.41-9.84 113.00-9.40Q113.58-8.96 115.06-8.48Q116.53-8.01 117.48-7.46L117.48-7.46Q119.79-6.13 119.79-3.80L119.79-3.80Q119.79-1.93 118.38-0.87Q116.97 0.20 114.52 0.20L114.52 0.20Q112.79 0.20 111.39-0.42Q109.99-1.04 109.28-2.12Q108.57-3.20 108.57-4.61L108.57-4.61L112.01-4.61Q112.01-3.47 112.60-2.92Q113.19-2.38 114.52-2.38L114.52-2.38Q115.37-2.38 115.86-2.75Q116.36-3.12 116.36-3.78ZM125.86-2.34L125.86-2.34Q126.55-2.34 126.93-2.72Q127.31-3.10 127.30-3.77L127.30-3.77L130.39-3.77Q130.39-2.03 129.15-0.92Q127.90 0.20 125.94 0.20L125.94 0.20Q123.63 0.20 122.30-1.25Q120.98-2.70 120.98-5.25L120.98-5.25L120.98-5.39Q120.98-6.99 121.57-8.22Q122.16-9.44 123.27-10.10Q124.38-10.76 125.91-10.76L125.91-10.76Q127.97-10.76 129.18-9.62Q130.39-8.48 130.39-6.52L130.39-6.52L127.30-6.52Q127.30-7.34 126.90-7.78Q126.50-8.22 125.83-8.22L125.83-8.22Q124.55-8.22 124.34-6.59L124.34-6.59Q124.27-6.07 124.27-5.17L124.27-5.17Q124.27-3.57 124.65-2.96Q125.03-2.34 125.86-2.34ZM135.25-10.57L135.25 0L131.95 0L131.95-10.57L135.25-10.57ZM131.76-13.29L131.76-13.29Q131.76-13.99 132.27-14.44Q132.77-14.89 133.58-14.89Q134.39-14.89 134.90-14.44Q135.41-13.99 135.41-13.29Q135.41-12.59 134.90-12.14Q134.39-11.69 133.58-11.69Q132.77-11.69 132.27-12.14Q131.76-12.59 131.76-13.29ZM142.81-2.97L142.81-2.97Q142.81-3.39 142.37-3.64Q141.93-3.90 140.70-4.17Q139.47-4.44 138.67-4.89Q137.87-5.33 137.45-5.97Q137.03-6.60 137.03-7.42L137.03-7.42Q137.03-8.88 138.23-9.82Q139.43-10.76 141.38-10.76L141.38-10.76Q143.47-10.76 144.74-9.81Q146.01-8.87 146.01-7.32L146.01-7.32L142.71-7.32Q142.71-8.59 141.37-8.59L141.37-8.59Q140.85-8.59 140.50-8.31Q140.15-8.02 140.15-7.59L140.15-7.59Q140.15-7.15 140.58-6.88Q141.01-6.60 141.95-6.43Q142.89-6.25 143.60-6.01L143.60-6.01Q145.99-5.19 145.99-3.07L145.99-3.07Q145.99-1.62 144.70-0.71Q143.42 0.20 141.38 0.20L141.38 0.20Q140.02 0.20 138.96-0.29Q137.89-0.78 137.29-1.62Q136.70-2.46 136.70-3.39L136.70-3.39L139.78-3.39Q139.79-2.66 140.26-2.32Q140.73-1.98 141.46-1.98L141.46-1.98Q142.14-1.98 142.48-2.26Q142.81-2.53 142.81-2.97ZM153.06-2.97L153.06-2.97Q153.06-3.39 152.62-3.64Q152.18-3.90 150.95-4.17Q149.72-4.44 148.92-4.89Q148.12-5.33 147.70-5.97Q147.28-6.60 147.28-7.42L147.28-7.42Q147.28-8.88 148.48-9.82Q149.68-10.76 151.62-10.76L151.62-10.76Q153.71-10.76 154.98-9.81Q156.25-8.87 156.25-7.32L156.25-7.32L152.95-7.32Q152.95-8.59 151.61-8.59L151.61-8.59Q151.09-8.59 150.74-8.31Q150.39-8.02 150.39-7.59L150.39-7.59Q150.39-7.15 150.82-6.88Q151.25-6.60 152.19-6.43Q153.13-6.25 153.85-6.01L153.85-6.01Q156.23-5.19 156.23-3.07L156.23-3.07Q156.23-1.62 154.95-0.71Q153.66 0.20 151.62 0.20L151.62 0.20Q150.26 0.20 149.20-0.29Q148.13-0.78 147.54-1.62Q146.94-2.46 146.94-3.39L146.94-3.39L150.02-3.39Q150.04-2.66 150.51-2.32Q150.98-1.98 151.71-1.98L151.71-1.98Q152.38-1.98 152.72-2.26Q153.06-2.53 153.06-2.97ZM157.36-4.82L157.35-5.38Q157.35-6.96 157.97-8.20Q158.58-9.43 159.74-10.10Q160.89-10.76 162.44-10.76L162.44-10.76Q164.81-10.76 166.18-9.29Q167.55-7.82 167.55-5.29L167.55-5.29L167.55-5.18Q167.55-2.71 166.18-1.25Q164.80 0.20 162.46 0.20L162.46 0.20Q160.21 0.20 158.84-1.16Q157.47-2.51 157.36-4.82L157.36-4.82ZM160.65-5.77L160.64-5.18Q160.64-3.71 161.10-3.03Q161.56-2.34 162.46-2.34L162.46-2.34Q164.22-2.34 164.26-5.05L164.26-5.05L164.26-5.38Q164.26-8.22 162.44-8.22L162.44-8.22Q160.79-8.22 160.65-5.77L160.65-5.77ZM175.45-10.64L175.39-7.59L174.31-7.67Q172.75-7.67 172.31-6.69L172.31-6.69L172.31 0L169.02 0L169.02-10.57L172.11-10.57L172.22-9.21Q173.05-10.76 174.53-10.76L174.53-10.76Q175.06-10.76 175.45-10.64L175.45-10.64ZM182.11-2.97L182.11-2.97Q182.11-3.39 181.67-3.64Q181.23-3.90 180-4.17Q178.77-4.44 177.97-4.89Q177.17-5.33 176.75-5.97Q176.33-6.60 176.33-7.42L176.33-7.42Q176.33-8.88 177.53-9.82Q178.73-10.76 180.67-10.76L180.67-10.76Q182.76-10.76 184.03-9.81Q185.30-8.87 185.30-7.32L185.30-7.32L182.00-7.32Q182.00-8.59 180.66-8.59L180.66-8.59Q180.15-8.59 179.79-8.31Q179.44-8.02 179.44-7.59L179.44-7.59Q179.44-7.15 179.87-6.88Q180.30-6.60 181.25-6.43Q182.19-6.25 182.90-6.01L182.90-6.01Q185.28-5.19 185.28-3.07L185.28-3.07Q185.28-1.62 184.00-0.71Q182.71 0.20 180.67 0.20L180.67 0.20Q179.32 0.20 178.25-0.29Q177.19-0.78 176.59-1.62Q176.00-2.46 176.00-3.39L176.00-3.39L179.07-3.39Q179.09-2.66 179.56-2.32Q180.03-1.98 180.76-1.98L180.76-1.98Q181.44-1.98 181.77-2.26Q182.11-2.53 182.11-2.97Z"></path></g></g></svg>